<svg id="Layer_1" data-name="Layer 1" xmlns="http://www.w3.org/2000/svg" xmlns:xlink="http://www.w3.org/1999/xlink" viewBox="0 0 600 200"><defs><style>.cls-1{fill:url(#linear-gradient);}.cls-2{fill:url(#linear-gradient-2);}.cls-3{fill:url(#linear-gradient-3);}.cls-4{fill:url(#linear-gradient-4);}.cls-5{fill:url(#linear-gradient-5);}.cls-6{fill:url(#linear-gradient-6);}.cls-7{fill:url(#linear-gradient-7);}.cls-8{fill:url(#linear-gradient-8);}.cls-9{fill:url(#linear-gradient-9);}.cls-10{fill:#585860;}.cls-11{fill:url(#linear-gradient-10);}.cls-12{fill:url(#linear-gradient-11);}</style><linearGradient id="linear-gradient" x1="201.06" y1="105.75" x2="641.1" y2="34.65" gradientUnits="userSpaceOnUse"><stop offset="0" stop-color="#0075c9"/><stop offset="0.49" stop-color="#3c9f83"/><stop offset="1" stop-color="#a4d69f"/></linearGradient><linearGradient id="linear-gradient-2" x1="201.64" y1="109.39" x2="641.69" y2="38.28" xlink:href="#linear-gradient"/><linearGradient id="linear-gradient-3" x1="202.95" y1="117.46" x2="642.99" y2="46.36" xlink:href="#linear-gradient"/><linearGradient id="linear-gradient-4" x1="203.73" y1="122.32" x2="643.78" y2="51.22" xlink:href="#linear-gradient"/><linearGradient id="linear-gradient-5" x1="204.95" y1="129.85" x2="644.99" y2="58.74" xlink:href="#linear-gradient"/><linearGradient id="linear-gradient-6" x1="205.73" y1="134.67" x2="645.77" y2="63.57" xlink:href="#linear-gradient"/><linearGradient id="linear-gradient-7" x1="206.96" y1="142.31" x2="647.01" y2="71.2" xlink:href="#linear-gradient"/><linearGradient id="linear-gradient-8" x1="208.18" y1="149.81" x2="648.22" y2="78.7" xlink:href="#linear-gradient"/><linearGradient id="linear-gradient-9" x1="209.45" y1="157.69" x2="649.49" y2="86.59" xlink:href="#linear-gradient"/><linearGradient id="linear-gradient-10" x1="16.09" y1="120.65" x2="133.6" y2="52.73" xlink:href="#linear-gradient"/><linearGradient id="linear-gradient-11" x1="31.03" y1="146.49" x2="148.53" y2="78.58" xlink:href="#linear-gradient"/></defs><path class="cls-1" d="M230,74.82h-6l-19.23,50.36H215l2.81-8.07L221,108l6-17.16L233,108l3.22,9.16,2.82,8.07H249.3ZM214,108v9.16h26.49V108Z"/><path class="cls-2" d="M254.83,74.82v50.36h9.83V74.82Z"/><path class="cls-3" d="M326.31,103.88a12.57,12.57,0,0,0-5.25-3.9,48.66,48.66,0,0,0-7.87-2.2l-.41-.1c-.13,0-.27,0-.41-.07a1.07,1.07,0,0,0-.33-.07,1.41,1.41,0,0,0-.28-.07,69.93,69.93,0,0,1-6.88-1.66,10.59,10.59,0,0,1-4.2-2.44,6.06,6.06,0,0,1-1.7-4.48v-.06a8.66,8.66,0,0,1,3.39-7.3c2.27-1.72,5.46-2.61,9.56-2.61a18.32,18.32,0,0,1,6.18,1.16,26.75,26.75,0,0,1,6.37,3.39l2.92-3.9a28.49,28.49,0,0,0-5-2.92,26.89,26.89,0,0,0-5.16-1.76,23.18,23.18,0,0,0-5.29-.58A24.42,24.42,0,0,0,302.27,76a13.13,13.13,0,0,0-6.11,5,14.71,14.71,0,0,0-2.1,8v0a10.86,10.86,0,0,0,2.24,7.25,12.46,12.46,0,0,0,5.43,3.7,65.85,65.85,0,0,0,8.47,2.1l1,.21c.1,0,.2,0,.27,0a2.17,2.17,0,0,1,.24.07,43.13,43.13,0,0,1,6.27,1.59,9.66,9.66,0,0,1,4,2.58,6.73,6.73,0,0,1,1.53,4.61v0a8.44,8.44,0,0,1-3.56,7.22c-2.38,1.69-5.7,2.54-10,2.54a23.27,23.27,0,0,1-8.27-1.39,21.77,21.77,0,0,1-7-4.14l-3,3.94a25.49,25.49,0,0,0,5.25,3.46A27.45,27.45,0,0,0,303,125a34.68,34.68,0,0,0,6.91.68,25.76,25.76,0,0,0,10-1.73,13.3,13.3,0,0,0,6.35-5,14,14,0,0,0,2.17-7.86V111A11.32,11.32,0,0,0,326.31,103.88Z"/><path class="cls-4" d="M363.48,74.82,350.05,100,336.62,74.82H331.2l16.38,29.88v20.48h5V104.7l16.38-29.88Z"/><path class="cls-5" d="M405,103.88a12.6,12.6,0,0,0-5.26-3.9,48.36,48.36,0,0,0-7.87-2.2l-.4-.1c-.14,0-.28,0-.41-.07a1.14,1.14,0,0,0-.34-.07,1.2,1.2,0,0,0-.27-.07,69.54,69.54,0,0,1-6.89-1.66,10.66,10.66,0,0,1-4.2-2.44,6.06,6.06,0,0,1-1.7-4.48v-.06a8.66,8.66,0,0,1,3.39-7.3c2.28-1.72,5.46-2.61,9.57-2.61a18.27,18.27,0,0,1,6.17,1.16,26.75,26.75,0,0,1,6.37,3.39l2.92-3.9a28.13,28.13,0,0,0-5-2.92,26.57,26.57,0,0,0-5.15-1.76,23.3,23.3,0,0,0-5.29-.58A24.44,24.44,0,0,0,380.91,76a13.05,13.05,0,0,0-6.1,5,14.71,14.71,0,0,0-2.1,8v0a10.86,10.86,0,0,0,2.23,7.25,12.52,12.52,0,0,0,5.43,3.7,65.64,65.64,0,0,0,8.48,2.1l1,.21c.1,0,.2,0,.27,0a2.17,2.17,0,0,1,.24.07,42.79,42.79,0,0,1,6.27,1.59,9.36,9.36,0,0,1,4,2.58,6.6,6.6,0,0,1,1.56,4.61v0a8.44,8.44,0,0,1-3.56,7.22Q395,121,388.58,121a23.29,23.29,0,0,1-8.28-1.39,21.62,21.62,0,0,1-7-4.14l-3,3.94a25.29,25.29,0,0,0,5.26,3.46,27.37,27.37,0,0,0,6.07,2.1,34.7,34.7,0,0,0,6.92.68,25.8,25.8,0,0,0,10-1.73,13.27,13.27,0,0,0,6.34-5,14,14,0,0,0,2.17-7.86V111A11.32,11.32,0,0,0,405,103.88Z"/><path class="cls-6" d="M410.18,74.82v4.65h35.5V74.82Zm15.26,2v48.33h5V76.85Z"/><path class="cls-7" d="M452.64,74.82v50.36h5V74.82Zm3.42,0v4.65H485V74.82Zm0,23v4.64h25.1V97.85Zm0,22.68v4.65H485v-4.65Z"/><path class="cls-8" d="M532.57,74.82l-16.14,36.35L500.25,74.82H495v50.36h5V86l14.65,32.15h3.53L532.84,85.3v39.88h5V74.82Z"/><path class="cls-9" d="M581.81,103.88a12.54,12.54,0,0,0-5.26-3.9,48.81,48.81,0,0,0-7.9-2.2l-.37-.1c-.14,0-.27,0-.41-.07a1.37,1.37,0,0,0-.34-.07,1.2,1.2,0,0,0-.27-.07,69.22,69.22,0,0,1-6.88-1.66,10.63,10.63,0,0,1-4.21-2.44,5.94,5.94,0,0,1-1.69-4.48v-.06a8.63,8.63,0,0,1,3.39-7.3c2.27-1.72,5.46-2.61,9.56-2.61a17.92,17.92,0,0,1,6.14,1.16,26.19,26.19,0,0,1,6.37,3.39l2.95-3.9a28.41,28.41,0,0,0-5-2.92,26.47,26.47,0,0,0-5.19-1.76,22.8,22.8,0,0,0-5.26-.58A24.39,24.39,0,0,0,557.77,76a13.08,13.08,0,0,0-6.11,5,14.46,14.46,0,0,0-2.1,8v0a10.81,10.81,0,0,0,2.24,7.25,12.57,12.57,0,0,0,5.39,3.7,66.71,66.71,0,0,0,8.51,2.1l1,.21c.11,0,.21,0,.28,0s.13,0,.23.07a43,43,0,0,1,6.28,1.59,9.33,9.33,0,0,1,4,2.58,6.56,6.56,0,0,1,1.56,4.61v0a8.42,8.42,0,0,1-3.56,7.22c-2.37,1.69-5.69,2.54-10,2.54a23.56,23.56,0,0,1-8.28-1.39,21.81,21.81,0,0,1-7-4.14l-3,3.94a26.58,26.58,0,0,0,5.29,3.46,27.37,27.37,0,0,0,6.07,2.1,34.7,34.7,0,0,0,6.89.68,26,26,0,0,0,10-1.73,13.19,13.19,0,0,0,6.31-5,13.73,13.73,0,0,0,2.2-7.86V111A11.32,11.32,0,0,0,581.81,103.88Z"/><rect class="cls-10" x="184.04" y="44.67" width="1.05" height="110.65"/><polygon class="cls-11" points="128.5 59.23 121.25 72.26 114.36 60.27 121.59 47.28 128.5 59.23"/><path class="cls-12" d="M162.14,137.11a22.25,22.25,0,0,1-10.82,12.06l-.91.46c-1.1.56-2.16,1.1-3.2,1.51a21.9,21.9,0,0,1-8.11,1.58,22.87,22.87,0,0,1-7.64-1.36,27,27,0,0,1-15.13-13.12c-1.88-3.43-3.91-6.84-5.85-10.12-1.11-1.87-2.22-3.75-3.3-5.65Q94,99.67,80.87,76.85l-.37-.66a18.42,18.42,0,0,0-3.29-4.52A12.76,12.76,0,0,0,68.65,68a11.44,11.44,0,0,0-8.05,3.55,24.27,24.27,0,0,0-4,5.35Q49.93,88.5,43.21,100.09l-7,12.06c-.49.86-1,1.7-1.49,2.53-1.31,2.22-2.66,4.5-3.86,6.87a12,12,0,0,0,4.27,15.74,11.51,11.51,0,0,0,6.23,1.88,12.39,12.39,0,0,0,9.74-5.06,46.55,46.55,0,0,0,3.14-4.79c.34-.54,1.51-2.58,1.51-2.58a1.06,1.06,0,0,0,.21-.31l1.55-2.67,1.11-1.87c.88-1.49,1.74-3,2.6-4.45,1.17-2,3.46-6.06,3.46-6.06L68.4,105l8.15,12-2.89,4.76c-3.16,5.4-6.23,10.8-9.33,16.18a32.78,32.78,0,0,1-9.67,10.55,21.94,21.94,0,0,1-9.91,3.84,24.62,24.62,0,0,1-13.28-1.9,26.77,26.77,0,0,1-14-15.45,22.48,22.48,0,0,1,1.29-18.34c1.31-2.46,2.75-4.93,4.18-7.32.79-1.36,1.6-2.71,2.37-4.09,1.81-3.12,3.57-6.23,5.35-9.37,2.4-4.18,4.77-8.36,7.16-12.54L39,81.18c1.61-2.8,3.23-5.69,5-8.4C49.69,64,55.54,58.94,63,56.5a18,18,0,0,1,5.69-1,17.46,17.46,0,0,1,5.22.83c7.75,2.51,13.37,6.71,17.26,12.83,2.59,4.16,5.15,8.2,7.54,12.36q7.29,12.57,14.52,25.18,6.67,11.6,13.38,23.16a29.23,29.23,0,0,0,3.77,5.28,11.83,11.83,0,0,0,19.49-12.9,26,26,0,0,0-1.22-2.32l-.22-.36q-3.84-6.75-7.71-13.47L125.45,79.58l7.28-13.08,3.68,6.37c7.72,13.33,15.7,27.13,23.65,40.64a39.54,39.54,0,0,1,3.54,8.58C165,126.59,164.51,131.22,162.14,137.11Z"/></svg>